<svg xmlns="http://www.w3.org/2000/svg" xmlns:xlink="http://www.w3.org/1999/xlink" x="0" y="0" width="661.4666748046875" height="360.4666748046875" style="
        width:661.4666748046875px;
        height:360.4666748046875px;
        background: transparent;
        fill: none;
">
        
        
        <svg xmlns="http://www.w3.org/2000/svg" class="role-diagram-draw-area"><g class="shapes-region" style="stroke: black; fill: none;"><g class="composite-shape"><path class="real" d=" M245.6,153.01 L261.77,170.53 L245.6,188.05 L229.43,170.53 Z" style="stroke-width: 1px; stroke: rgb(0, 0, 0); fill: rgb(245, 166, 35); fill-opacity: 0.25;"/></g><g class="composite-shape"><path class="real" d=" M248.05,153.88 L264.22,171.4 L248.05,188.93 L231.89,171.4 Z" style="stroke-width: 1px; stroke: rgb(0, 0, 0); fill: rgb(245, 166, 35); fill-opacity: 0.25;"/></g><g class="composite-shape"><path class="real" d=" M250.51,154.76 L266.68,172.28 L250.51,189.8 L234.34,172.28 Z" style="stroke-width: 1px; stroke: rgb(0, 0, 0); fill: rgb(245, 166, 35); fill-opacity: 0.25;"/></g><g class="composite-shape"><path class="real" d=" M286.41,139.73 L318.92,139.73 L318.92,253.47 L286.41,253.47 Z" style="stroke-width: 1px; stroke: rgb(0, 0, 0); stroke-opacity: 0.5; fill: rgb(155, 155, 155); fill-opacity: 0.5;"/></g><g class="composite-shape"><path class="real" d=" M288.86,142.19 L321.38,142.19 L321.38,255.93 L288.86,255.93 Z" style="stroke-width: 1px; stroke: rgb(0, 0, 0); stroke-opacity: 0.5; fill: rgb(155, 155, 155); fill-opacity: 0.5;"/></g><g class="composite-shape"><path class="real" d=" M291.32,144.65 L323.84,144.65 L323.84,258.38 L291.32,258.38 Z" style="stroke-width: 1px; stroke: rgb(0, 0, 0); stroke-opacity: 0.5; fill: rgb(155, 155, 155); fill-opacity: 0.5;"/></g><g class="composite-shape"><path class="real" d=" M252.97,155.64 L269.13,173.16 L252.97,190.68 L236.8,173.16 Z" style="stroke-width: 1px; stroke: rgb(0, 0, 0); fill: rgb(245, 166, 35); fill-opacity: 1;"/></g><g class="arrow-line"><path class="connection real" stroke-dasharray="" d="  M268.94,173.49 L283.65,173.1" style="stroke: rgb(0, 0, 0); stroke-width: 1px; fill: none; fill-opacity: 1;"/><g stroke="none" fill="#000" transform="matrix(-0.9996527410105678,0.026351421025416055,-0.026351421025416055,-0.9996527410105678,286.65264312373307,173.0253235280332)" style="stroke: none; fill: rgb(0, 0, 0); stroke-width: 1px;"><path d=" M9.82,-4.72 L0,0 L9.82,4.72 L6.52,0 Z"/></g></g><g class="arrow-line"><path class="connection real" stroke-dasharray="" d="  M197.09,234.02 L283.13,233.94" style="stroke: rgb(0, 0, 0); stroke-width: 1px; fill: rgb(155, 155, 155); fill-opacity: 1;"/><g stroke="none" fill="#000" transform="matrix(-0.9999996192282494,0.0008726645152345744,-0.0008726645152345744,-0.9999996192282494,286.1341739703827,233.9409766019232)" style="stroke: none; fill: rgb(0, 0, 0); stroke-width: 1px;"><path d=" M9.82,-4.72 L0,0 L9.82,4.72 L6.52,0 Z"/></g></g><g class="arrow-line"><path class="connection real" stroke-dasharray="" d="  M318.42,208.09 L348.33,208.07" style="stroke: rgb(0, 0, 0); stroke-width: 1px; fill: rgb(155, 155, 155); fill-opacity: 1;"/><g stroke="none" fill="#000" transform="matrix(-0.9999998629221643,0.0005235987516731496,-0.0005235987516731496,-0.9999998629221643,351.3250557937983,208.06788163099097)" style="stroke: none; fill: rgb(0, 0, 0); stroke-width: 1px;"><path d=" M9.82,-4.72 L0,0 L9.82,4.72 L6.52,0 Z"/></g></g><g class="composite-shape"><path class="real" d=" M179.01,208.25 L211.26,208.25 L211.26,242.77 L179.01,242.77 Z" style="stroke-width: 1px; stroke: rgb(0, 0, 0); stroke-opacity: 0.5; fill: rgb(155, 155, 155); fill-opacity: 0.5;"/></g><g class="composite-shape"><path class="real" d=" M181.63,211.23 L213.88,211.23 L213.88,245.75 L181.63,245.75 Z" style="stroke-width: 1px; stroke: rgb(0, 0, 0); stroke-opacity: 0.5; fill: rgb(155, 155, 155); fill-opacity: 0.5;"/></g><g class="composite-shape"><path class="real" d=" M184.27,214.29 L216.53,214.29 L216.53,248.8 L184.27,248.8 Z" style="stroke-width: 1px; stroke: rgb(0, 0, 0); stroke-opacity: 0.5; fill: rgb(155, 155, 155); fill-opacity: 0.5;"/></g><g class="composite-shape"><path class="real" d=" M186.86,217.22 L219.11,217.22 L219.11,251.74 L186.86,251.74 Z" style="stroke-width: 1px; stroke: rgb(0, 0, 0); fill: rgb(155, 155, 155); fill-opacity: 1;"/></g><g class="composite-shape"><path class="real" d=" M293.77,147.11 L326.29,147.11 L326.29,260.84 L293.77,260.84 Z" style="stroke-width: 1px; stroke: rgb(0, 0, 0); fill: rgb(155, 155, 155); fill-opacity: 1;"/></g><g class="composite-shape"><path class="real" d=" M179.83,147.81 L212.08,147.81 L212.08,182.32 L179.83,182.32 Z" style="stroke-width: 1px; stroke: rgb(0, 0, 0); stroke-opacity: 0.5; fill: rgb(155, 155, 155); fill-opacity: 0.5;"/></g><g class="composite-shape"><path class="real" d=" M182.45,150.78 L214.7,150.78 L214.7,185.3 L182.45,185.3 Z" style="stroke-width: 1px; stroke: rgb(0, 0, 0); stroke-opacity: 0.5; fill: rgb(155, 155, 155); fill-opacity: 0.5;"/></g><g class="composite-shape"><path class="real" d=" M185.09,153.84 L217.35,153.84 L217.35,188.35 L185.09,188.35 Z" style="stroke-width: 1px; stroke: rgb(0, 0, 0); stroke-opacity: 0.5; fill: rgb(155, 155, 155); fill-opacity: 0.5;"/></g><g class="composite-shape"><path class="real" d=" M187.68,156.77 L219.93,156.77 L219.93,191.29 L187.68,191.29 Z" style="stroke-width: 1px; stroke: rgb(0, 0, 0); fill: rgb(155, 155, 155); fill-opacity: 1;"/></g><g class="arrow-line"><path class="connection real" stroke-dasharray="" d="  M219.82,173.49 L236.8,173.16" style="stroke: rgb(0, 0, 0); stroke-width: 1px; fill: none; fill-opacity: 1;"/></g><g class="composite-shape"><path class="real" d=" M351.64,153.41 C351.64,149.9 354.48,147.06 357.99,147.06 L377.05,147.06 C380.56,147.06 383.4,149.9 383.4,153.41 L383.4,253.4 C383.4,256.91 380.56,259.76 377.05,259.76 L357.99,259.76 C354.48,259.76 351.64,256.91 351.64,253.4 Z" style="stroke-width: 2px; stroke: rgb(208, 2, 27); stroke-opacity: 1; fill: rgb(184, 233, 134); fill-opacity: 1;"/></g><g class="arrow-line"><path class="connection real" stroke-dasharray="7.5 6" d="  M351.64,153.41 C340.28,118.79 394.82,117.58 384.76,149.78" style="stroke: rgb(208, 2, 27); stroke-opacity: 1; stroke-width: 2px; fill: none; fill-opacity: 1;"/><g stroke="none" fill="rgb(208,2,27)" fill-opacity="1" transform="matrix(0.39586607672559315,-0.918308253963715,0.918308253963715,0.39586607672559315,383.3992969262964,153.411417763011)" style="stroke: none; fill: rgb(208, 2, 27); stroke-width: 2px;"><path d=" M12.23,-5.88 L0,0 L12.23,5.88 L8.12,0 Z"/></g></g><g class="arrow-line"><path class="connection real" stroke-dasharray="" d="  M383.92,207.59 L413.83,207.57" style="stroke: rgb(0, 0, 0); stroke-width: 1px; fill: rgb(155, 155, 155); fill-opacity: 1;"/><g stroke="none" fill="#000" transform="matrix(-0.9999998629221643,0.0005235987516731496,-0.0005235987516731496,-0.9999998629221643,416.8250557937983,207.567881630991)" style="stroke: none; fill: rgb(0, 0, 0); stroke-width: 1px;"><path d=" M9.82,-4.72 L0,0 L9.82,4.72 L6.52,0 Z"/></g></g><g/></g><g/><g/><g/></svg>
        <svg xmlns="http://www.w3.org/2000/svg" xmlns:xlink="http://www.w3.org/1999/xlink" width="660" height="359" style="width:660px;height:359px;font-family:Asana-Math, Asana;background:transparent;"><g><g><g><g transform="matrix(1,0,0,1,195.066650390625,240.23333740234375)"><path transform="matrix(0.017,0,0,-0.017,0,0)" d="M543 227C543 337 459 353 377 365C434 385 459 397 490 425C536 464 559 511 559 562C559 644 501 692 401 692C399 692 389 692 374 691L311 690C299 689 263 689 251 689C232 689 201 690 152 691L100 692L97 664L150 662C174 661 185 653 185 635C185 621 181 589 176 559L89 55C85 37 73 30 31 23L26 -3L63 -2C90 0 105 0 117 0C128 0 154 -1 180 -2L217 -3L237 -4C256 -5 269 -6 277 -6C392 -6 543 87 543 227ZM166 41L217 340L302 340C405 340 455 298 455 211C455 108 382 34 282 34C228 34 207 38 166 41ZM352 655C433 655 473 619 473 544C473 439 399 376 275 376L223 376L272 650C288 650 329 655 352 655Z" stroke="rgb(0,0,0)" stroke-opacity="1" stroke-width="8" fill="rgb(0,0,0)" fill-opacity="1"></path></g></g><g><g><g><g><g transform="matrix(1,0,0,1,205.95001220703125,243.29999389648438)"><path transform="matrix(0.0119,0,0,-0.0119,0,0)" d="M125 390L69 107C68 99 56 61 56 31C56 6 67 -9 86 -9C121 -9 156 11 234 74L265 99L255 117L210 86C181 66 161 56 150 56C141 56 136 64 136 76C136 102 150 183 179 328L192 390L299 390L310 440C272 436 238 434 200 434C216 528 227 577 245 631L234 646C214 634 187 622 156 610L131 440C87 419 61 408 43 403L41 390Z" stroke="rgb(0,0,0)" stroke-opacity="1" stroke-width="8" fill="rgb(0,0,0)" fill-opacity="1"></path></g></g></g></g></g></g></g><g><g><g><g><g><g><g transform="matrix(1,0,0,1,361.4000244140625,218.25)"><path transform="matrix(0.017,0,0,-0.017,0,0)" d="M310 96L239 624C237 646 241 661 281 662L323 664L323 692L282 691C245 690 217 689 199 689C181 689 153 690 116 691L75 692L75 664L100 662C144 659 152 651 159 614L247 -8L296 -8L674 611C699 651 707 658 736 662L754 664L754 692L724 691C697 690 674 689 658 689C648 689 621 690 580 691L534 692L534 664L560 662C598 659 617 649 617 630C617 619 613 608 601 588Z" stroke="rgb(0,0,0)" stroke-opacity="1" stroke-width="8" fill="rgb(0,0,0)" fill-opacity="1"></path></g></g></g></g><svg x="361.4000244140625" overflow="visible" y="195.31666564941406" height="9" width="12.25"><polyline points="0.00,8.06 6.13,3.97 12.25,8.06" style="fill:none;fill-opacity:1;stroke-width:1px;stroke:rgb(0,0,0);stroke-opacity:1;"></polyline></svg></g></g></g><g><g><g><g transform="matrix(1,0,0,1,242.79998779296875,178.03334045410156)"><path transform="matrix(0.017,0,0,-0.017,0,0)" d="M748 425C748 603 644 706 464 706C227 706 53 523 53 272C53 83 147 -18 323 -18C595 -18 748 207 748 425ZM660 409C660 221 571 24 360 24C216 24 141 110 141 277C141 425 199 664 433 664C549 664 660 610 660 409Z" stroke="rgb(0,0,0)" stroke-opacity="1" stroke-width="8" fill="rgb(0,0,0)" fill-opacity="1"></path></g></g><g><g><g><g><g transform="matrix(1,0,0,1,256.5333251953125,181.10001220703126)"><path transform="matrix(0.0119,0,0,-0.0119,0,0)" d="M125 390L69 107C68 99 56 61 56 31C56 6 67 -9 86 -9C121 -9 156 11 234 74L265 99L255 117L210 86C181 66 161 56 150 56C141 56 136 64 136 76C136 102 150 183 179 328L192 390L299 390L310 440C272 436 238 434 200 434C216 528 227 577 245 631L234 646C214 634 187 622 156 610L131 440C87 419 61 408 43 403L41 390Z" stroke="rgb(0,0,0)" stroke-opacity="1" stroke-width="8" fill="rgb(0,0,0)" fill-opacity="1"></path></g></g></g></g></g></g></g><g><g><g><g transform="matrix(1,0,0,1,184.25,129.07667175292968)"><path transform="matrix(0.02941,0,0,-0.02941,0,0)" d="M9 1C24 -7 40 -11 52 -11C85 -11 124 18 155 65L231 182L242 113C255 28 278 -11 314 -11C336 -11 368 6 400 35L449 79L440 98C404 68 379 53 363 53C348 53 335 63 325 83C316 102 305 139 300 168L282 269L317 318C364 383 391 406 422 406C438 406 450 398 455 383L469 387L484 472C472 479 463 482 454 482C414 482 374 446 312 354L275 299L269 347C257 446 230 482 171 482C145 482 123 474 114 461L56 378L73 368C103 402 123 416 142 416C175 416 197 375 214 277L225 215L185 153C142 86 108 54 80 54C65 54 54 58 52 63L41 91L21 88C21 53 13 27 9 1Z" stroke="rgb(0,0,0)" stroke-opacity="1" stroke-width="8" fill="rgb(0,0,0)" fill-opacity="1"></path></g></g><g><g><g><g><g transform="matrix(1,0,0,1,199.816650390625,134.22034655761718)"><path transform="matrix(0.020587,0,0,-0.020587,0,0)" d="M125 390L69 107C68 99 56 61 56 31C56 6 67 -9 86 -9C121 -9 156 11 234 74L265 99L255 117L210 86C181 66 161 56 150 56C141 56 136 64 136 76C136 102 150 183 179 328L192 390L299 390L310 440C272 436 238 434 200 434C216 528 227 577 245 631L234 646C214 634 187 622 156 610L131 440C87 419 61 408 43 403L41 390Z" stroke="rgb(0,0,0)" stroke-opacity="1" stroke-width="8" fill="rgb(0,0,0)" fill-opacity="1"></path></g></g></g></g></g></g></g><g><g><g><g transform="matrix(1,0,0,1,294.26666259765625,210.28334045410156)"><path transform="matrix(0.017,0,0,-0.017,0,0)" d="M748 425C748 603 644 706 464 706C227 706 53 523 53 272C53 83 147 -18 323 -18C595 -18 748 207 748 425ZM660 409C660 221 571 24 360 24C216 24 141 110 141 277C141 425 199 664 433 664C549 664 660 610 660 409ZM1320 227C1320 337 1236 353 1154 365C1211 385 1236 397 1267 425C1313 464 1336 511 1336 562C1336 644 1278 692 1178 692C1176 692 1166 692 1151 691L1088 690C1076 689 1040 689 1028 689C1009 689 978 690 929 691L877 692L874 664L927 662C951 661 962 653 962 635C962 621 958 589 953 559L866 55C862 37 850 30 808 23L803 -3L840 -2C867 0 882 0 894 0C905 0 931 -1 957 -2L994 -3L1014 -4C1033 -5 1046 -6 1054 -6C1169 -6 1320 87 1320 227ZM943 41L994 340L1079 340C1182 340 1232 298 1232 211C1232 108 1159 34 1059 34C1005 34 984 38 943 41ZM1129 655C1210 655 1250 619 1250 544C1250 439 1176 376 1052 376L1000 376L1049 650C1065 650 1106 655 1129 655Z" stroke="rgb(0,0,0)" stroke-opacity="1" stroke-width="8" fill="rgb(0,0,0)" fill-opacity="1"></path></g></g><g><g><g></g></g><g><g><g><g transform="matrix(1,0,0,1,318.36669921875,213.98334350585938)"><path transform="matrix(0.0119,0,0,-0.0119,0,0)" d="M125 390L69 107C68 99 56 61 56 31C56 6 67 -9 86 -9C121 -9 156 11 234 74L265 99L255 117L210 86C181 66 161 56 150 56C141 56 136 64 136 76C136 102 150 183 179 328L192 390L299 390L310 440C272 436 238 434 200 434C216 528 227 577 245 631L234 646C214 634 187 622 156 610L131 440C87 419 61 408 43 403L41 390Z" stroke="rgb(0,0,0)" stroke-opacity="1" stroke-width="8" fill="rgb(0,0,0)" fill-opacity="1"></path></g></g></g></g></g></g></g><g><g><g><g transform="matrix(1,0,0,1,194.45001220703125,179.78334045410156)"><path transform="matrix(0.017,0,0,-0.017,0,0)" d="M748 425C748 603 644 706 464 706C227 706 53 523 53 272C53 83 147 -18 323 -18C595 -18 748 207 748 425ZM660 409C660 221 571 24 360 24C216 24 141 110 141 277C141 425 199 664 433 664C549 664 660 610 660 409Z" stroke="rgb(0,0,0)" stroke-opacity="1" stroke-width="8" fill="rgb(0,0,0)" fill-opacity="1"></path></g></g><g><g><g><g><g transform="matrix(1,0,0,1,208.183349609375,182.83333435058594)"><path transform="matrix(0.0119,0,0,-0.0119,0,0)" d="M125 390L69 107C68 99 56 61 56 31C56 6 67 -9 86 -9C121 -9 156 11 234 74L265 99L255 117L210 86C181 66 161 56 150 56C141 56 136 64 136 76C136 102 150 183 179 328L192 390L299 390L310 440C272 436 238 434 200 434C216 528 227 577 245 631L234 646C214 634 187 622 156 610L131 440C87 419 61 408 43 403L41 390Z" stroke="rgb(0,0,0)" stroke-opacity="1" stroke-width="8" fill="rgb(0,0,0)" fill-opacity="1"></path></g></g></g></g></g></g></g><g><g><g><g transform="matrix(1,0,0,1,354.26666259765625,109.44334045410156)"><path transform="matrix(0.02941,0,0,-0.02941,0,0)" d="M236 722L224 733C179 711 138 697 64 691L60 670L108 670C126 670 142 667 142 647C142 641 142 632 140 622L98 388C78 272 36 80 10 2L17 -9L86 7C94 64 108 164 148 236C193 317 296 414 338 414C349 414 360 407 360 393C360 375 355 342 345 303L294 107C288 85 281 55 281 31C281 6 291 -9 312 -9C344 -9 412 41 471 85L461 103L435 86C412 71 386 56 374 56C367 56 361 65 361 76C361 88 364 101 368 116L432 372C438 398 443 423 443 447C443 464 437 482 411 482C376 482 299 437 231 374C198 343 172 308 144 273L140 275Z" stroke="rgb(0,0,0)" stroke-opacity="1" stroke-width="8" fill="rgb(0,0,0)" fill-opacity="1"></path></g></g><g><g><g><g><g transform="matrix(1,0,0,1,369.8333740234375,114.587)"><path transform="matrix(0.020587,0,0,-0.020587,0,0)" d="M125 390L69 107C68 99 56 61 56 31C56 6 67 -9 86 -9C121 -9 156 11 234 74L265 99L255 117L210 86C181 66 161 56 150 56C141 56 136 64 136 76C136 102 150 183 179 328L192 390L299 390L310 440C272 436 238 434 200 434C216 528 227 577 245 631L234 646C214 634 187 622 156 610L131 440C87 419 61 408 43 403L41 390Z" stroke="rgb(0,0,0)" stroke-opacity="1" stroke-width="8" fill="rgb(0,0,0)" fill-opacity="1"></path></g></g></g></g></g></g></g><g><g><g><g><g><g><g><g><g><g transform="matrix(1,0,0,1,426.1500244140625,176.3000030517578)"><path transform="matrix(0.017,0,0,-0.017,0,0)" d="M322 -11C334 -11 343 -9 372 -1C383 61 391 95 402 142L380 142L358 82C352 64 340 57 319 57C307 57 291 59 270 64L252 68C219 75 185 80 166 80C134 80 107 74 71 59L410 441L416 473L407 482L384 459C374 449 364 445 350 445C316 445 264 453 216 466L198 471C170 478 150 482 136 482C119 482 99 479 75 472L43 350L64 350L94 408C111 412 120 413 133 413C174 413 206 398 259 398C295 398 319 404 352 421L-1 21L8 -6C37 17 64 26 99 26C162 26 253 -11 322 -11Z" stroke="rgb(0,0,0)" stroke-opacity="1" stroke-width="8" fill="rgb(0,0,0)" fill-opacity="1"></path></g></g><g><g><g><g><g transform="matrix(1,0,0,1,434.20001220703125,179.5333465576172)"><path transform="matrix(0.0119,0,0,-0.0119,0,0)" d="M418 -3L418 27L366 30C311 33 301 44 301 96L301 700L60 598L67 548L217 614L217 96C217 44 206 33 152 30L96 27L96 -3C250 0 250 0 261 0C292 0 402 -3 418 -3ZM917 -3L917 27L865 30C810 33 800 44 800 96L800 700L559 598L566 548L716 614L716 96C716 44 705 33 651 30L595 27L595 -3C749 0 749 0 760 0C791 0 901 -3 917 -3Z" stroke="rgb(0,0,0)" stroke-opacity="1" stroke-width="8" fill="rgb(0,0,0)" fill-opacity="1"></path></g></g></g></g></g></g></g><g><g><g><g transform="matrix(1,0,0,1,458.683349609375,176.3000030517578)"><path transform="matrix(0.017,0,0,-0.017,0,0)" d="M322 -11C334 -11 343 -9 372 -1C383 61 391 95 402 142L380 142L358 82C352 64 340 57 319 57C307 57 291 59 270 64L252 68C219 75 185 80 166 80C134 80 107 74 71 59L410 441L416 473L407 482L384 459C374 449 364 445 350 445C316 445 264 453 216 466L198 471C170 478 150 482 136 482C119 482 99 479 75 472L43 350L64 350L94 408C111 412 120 413 133 413C174 413 206 398 259 398C295 398 319 404 352 421L-1 21L8 -6C37 17 64 26 99 26C162 26 253 -11 322 -11Z" stroke="rgb(0,0,0)" stroke-opacity="1" stroke-width="8" fill="rgb(0,0,0)" fill-opacity="1"></path></g></g><g><g><g><g><g transform="matrix(1,0,0,1,466.73333740234375,179.5333465576172)"><path transform="matrix(0.0119,0,0,-0.0119,0,0)" d="M418 -3L418 27L366 30C311 33 301 44 301 96L301 700L60 598L67 548L217 614L217 96C217 44 206 33 152 30L96 27L96 -3C250 0 250 0 261 0C292 0 402 -3 418 -3ZM515 23L515 -3C702 -3 702 0 738 0C774 0 774 -3 967 -3L967 82C852 77 806 81 621 77L803 270C900 373 930 428 930 503C930 618 852 689 725 689C653 689 604 669 555 619L538 483L567 483L580 529C596 587 632 612 699 612C785 612 840 558 840 473C840 398 798 324 685 204Z" stroke="rgb(0,0,0)" stroke-opacity="1" stroke-width="8" fill="rgb(0,0,0)" fill-opacity="1"></path></g></g></g></g></g></g></g><g><g><g><g transform="matrix(1,0,0,1,494.2833251953125,176.3000030517578)"><path transform="matrix(0.017,0,0,-0.017,0,0)" d="M499 116C469 116 442 88 442 58C442 28 469 0 498 0C530 0 558 27 558 58C558 88 530 116 499 116ZM166 116C136 116 109 88 109 58C109 28 136 0 165 0C197 0 225 27 225 58C225 88 197 116 166 116ZM832 116C802 116 775 88 775 58C775 28 802 0 831 0C863 0 891 27 891 58C891 88 863 116 832 116Z" stroke="rgb(0,0,0)" stroke-opacity="1" stroke-width="8" fill="rgb(0,0,0)" fill-opacity="1"></path></g></g></g></g><g><g><g><g transform="matrix(1,0,0,1,525.9500122070312,176.3000030517578)"><path transform="matrix(0.017,0,0,-0.017,0,0)" d="M322 -11C334 -11 343 -9 372 -1C383 61 391 95 402 142L380 142L358 82C352 64 340 57 319 57C307 57 291 59 270 64L252 68C219 75 185 80 166 80C134 80 107 74 71 59L410 441L416 473L407 482L384 459C374 449 364 445 350 445C316 445 264 453 216 466L198 471C170 478 150 482 136 482C119 482 99 479 75 472L43 350L64 350L94 408C111 412 120 413 133 413C174 413 206 398 259 398C295 398 319 404 352 421L-1 21L8 -6C37 17 64 26 99 26C162 26 253 -11 322 -11Z" stroke="rgb(0,0,0)" stroke-opacity="1" stroke-width="8" fill="rgb(0,0,0)" fill-opacity="1"></path></g></g><g><g><g><g><g transform="matrix(1,0,0,1,534,179.5333465576172)"><path transform="matrix(0.0119,0,0,-0.0119,0,0)" d="M418 -3L418 27L366 30C311 33 301 44 301 96L301 700L60 598L67 548L217 614L217 96C217 44 206 33 152 30L96 27L96 -3C250 0 250 0 261 0C292 0 402 -3 418 -3ZM735 722L723 733C678 711 637 697 563 691L559 670L607 670C625 670 641 667 641 647C641 641 641 632 639 622L597 388C577 272 535 80 509 2L516 -9L585 7C593 64 607 164 647 236C692 317 795 414 837 414C848 414 859 407 859 393C859 375 854 342 844 303L793 107C787 85 780 55 780 31C780 6 790 -9 811 -9C843 -9 911 41 970 85L960 103L934 86C911 71 885 56 873 56C866 56 860 65 860 76C860 88 863 101 867 116L931 372C937 398 942 423 942 447C942 464 936 482 910 482C875 482 798 437 730 374C697 343 671 308 643 273L639 275Z" stroke="rgb(0,0,0)" stroke-opacity="1" stroke-width="8" fill="rgb(0,0,0)" fill-opacity="1"></path></g></g></g></g></g></g></g><g><g><g><g transform="matrix(1,0,0,1,426.1500244140625,199.4166717529297)"><path transform="matrix(0.017,0,0,-0.017,0,0)" d="M322 -11C334 -11 343 -9 372 -1C383 61 391 95 402 142L380 142L358 82C352 64 340 57 319 57C307 57 291 59 270 64L252 68C219 75 185 80 166 80C134 80 107 74 71 59L410 441L416 473L407 482L384 459C374 449 364 445 350 445C316 445 264 453 216 466L198 471C170 478 150 482 136 482C119 482 99 479 75 472L43 350L64 350L94 408C111 412 120 413 133 413C174 413 206 398 259 398C295 398 319 404 352 421L-1 21L8 -6C37 17 64 26 99 26C162 26 253 -11 322 -11Z" stroke="rgb(0,0,0)" stroke-opacity="1" stroke-width="8" fill="rgb(0,0,0)" fill-opacity="1"></path></g></g><g><g><g><g><g transform="matrix(1,0,0,1,434.20001220703125,202.65)"><path transform="matrix(0.0119,0,0,-0.0119,0,0)" d="M16 23L16 -3C203 -3 203 0 239 0C275 0 275 -3 468 -3L468 82C353 77 307 81 122 77L304 270C401 373 431 428 431 503C431 618 353 689 226 689C154 689 105 669 56 619L39 483L68 483L81 529C97 587 133 612 200 612C286 612 341 558 341 473C341 398 299 324 186 204ZM917 -3L917 27L865 30C810 33 800 44 800 96L800 700L559 598L566 548L716 614L716 96C716 44 705 33 651 30L595 27L595 -3C749 0 749 0 760 0C791 0 901 -3 917 -3Z" stroke="rgb(0,0,0)" stroke-opacity="1" stroke-width="8" fill="rgb(0,0,0)" fill-opacity="1"></path></g></g></g></g></g></g></g><g><g><g><g transform="matrix(1,0,0,1,458.683349609375,199.4166717529297)"><path transform="matrix(0.017,0,0,-0.017,0,0)" d="M322 -11C334 -11 343 -9 372 -1C383 61 391 95 402 142L380 142L358 82C352 64 340 57 319 57C307 57 291 59 270 64L252 68C219 75 185 80 166 80C134 80 107 74 71 59L410 441L416 473L407 482L384 459C374 449 364 445 350 445C316 445 264 453 216 466L198 471C170 478 150 482 136 482C119 482 99 479 75 472L43 350L64 350L94 408C111 412 120 413 133 413C174 413 206 398 259 398C295 398 319 404 352 421L-1 21L8 -6C37 17 64 26 99 26C162 26 253 -11 322 -11Z" stroke="rgb(0,0,0)" stroke-opacity="1" stroke-width="8" fill="rgb(0,0,0)" fill-opacity="1"></path></g></g><g><g><g><g><g transform="matrix(1,0,0,1,466.73333740234375,202.65)"><path transform="matrix(0.0119,0,0,-0.0119,0,0)" d="M16 23L16 -3C203 -3 203 0 239 0C275 0 275 -3 468 -3L468 82C353 77 307 81 122 77L304 270C401 373 431 428 431 503C431 618 353 689 226 689C154 689 105 669 56 619L39 483L68 483L81 529C97 587 133 612 200 612C286 612 341 558 341 473C341 398 299 324 186 204ZM515 23L515 -3C702 -3 702 0 738 0C774 0 774 -3 967 -3L967 82C852 77 806 81 621 77L803 270C900 373 930 428 930 503C930 618 852 689 725 689C653 689 604 669 555 619L538 483L567 483L580 529C596 587 632 612 699 612C785 612 840 558 840 473C840 398 798 324 685 204Z" stroke="rgb(0,0,0)" stroke-opacity="1" stroke-width="8" fill="rgb(0,0,0)" fill-opacity="1"></path></g></g></g></g></g></g></g><g><g><g><g transform="matrix(1,0,0,1,494.2833251953125,199.4166717529297)"><path transform="matrix(0.017,0,0,-0.017,0,0)" d="M499 116C469 116 442 88 442 58C442 28 469 0 498 0C530 0 558 27 558 58C558 88 530 116 499 116ZM166 116C136 116 109 88 109 58C109 28 136 0 165 0C197 0 225 27 225 58C225 88 197 116 166 116ZM832 116C802 116 775 88 775 58C775 28 802 0 831 0C863 0 891 27 891 58C891 88 863 116 832 116Z" stroke="rgb(0,0,0)" stroke-opacity="1" stroke-width="8" fill="rgb(0,0,0)" fill-opacity="1"></path></g></g></g></g><g><g><g><g transform="matrix(1,0,0,1,534.2999877929688,199.4166717529297)"><path transform="matrix(0.017,0,0,-0.017,0,0)" d="M124 674C94 674 67 646 67 616C67 586 94 558 123 558C155 558 183 585 183 616C183 646 155 674 124 674ZM124 329C94 329 67 301 67 271C67 241 94 213 123 213C155 213 183 240 183 271C183 301 155 329 124 329ZM124 -26C94 -26 67 -54 67 -84C67 -114 94 -142 123 -142C155 -142 183 -115 183 -84C183 -54 155 -26 124 -26Z" stroke="rgb(0,0,0)" stroke-opacity="1" stroke-width="8" fill="rgb(0,0,0)" fill-opacity="1"></path></g></g></g></g><g><g><g><g transform="matrix(1,0,0,1,434.5,222.53334045410156)"><path transform="matrix(0.017,0,0,-0.017,0,0)" d="M124 674C94 674 67 646 67 616C67 586 94 558 123 558C155 558 183 585 183 616C183 646 155 674 124 674ZM124 329C94 329 67 301 67 271C67 241 94 213 123 213C155 213 183 240 183 271C183 301 155 329 124 329ZM124 -26C94 -26 67 -54 67 -84C67 -114 94 -142 123 -142C155 -142 183 -115 183 -84C183 -54 155 -26 124 -26Z" stroke="rgb(0,0,0)" stroke-opacity="1" stroke-width="8" fill="rgb(0,0,0)" fill-opacity="1"></path></g></g></g></g><g><g><g><g transform="matrix(1,0,0,1,467.0333251953125,222.53334045410156)"><path transform="matrix(0.017,0,0,-0.017,0,0)" d="M124 674C94 674 67 646 67 616C67 586 94 558 123 558C155 558 183 585 183 616C183 646 155 674 124 674ZM124 329C94 329 67 301 67 271C67 241 94 213 123 213C155 213 183 240 183 271C183 301 155 329 124 329ZM124 -26C94 -26 67 -54 67 -84C67 -114 94 -142 123 -142C155 -142 183 -115 183 -84C183 -54 155 -26 124 -26Z" stroke="rgb(0,0,0)" stroke-opacity="1" stroke-width="8" fill="rgb(0,0,0)" fill-opacity="1"></path></g></g></g></g><g><g><g><g transform="matrix(1,0,0,1,496.20001220703125,222.53334045410156)"><path transform="matrix(0.017,0,0,-0.017,0,0)" d="M428 318C407 339 368 338 347 317C326 296 325 257 346 236C368 214 407 213 429 235C450 256 450 296 428 318ZM193 553C172 574 133 574 112 552C90 531 90 492 110 472C133 449 172 449 194 470C215 492 215 531 193 553ZM664 82C643 103 604 103 582 82C561 60 561 21 581 1C604 -22 643 -22 664 0C686 21 686 60 664 82Z" stroke="rgb(0,0,0)" stroke-opacity="1" stroke-width="8" fill="rgb(0,0,0)" fill-opacity="1"></path></g></g></g></g><g><g><g><g transform="matrix(1,0,0,1,534.2999877929688,222.53334045410156)"><path transform="matrix(0.017,0,0,-0.017,0,0)" d="M124 674C94 674 67 646 67 616C67 586 94 558 123 558C155 558 183 585 183 616C183 646 155 674 124 674ZM124 329C94 329 67 301 67 271C67 241 94 213 123 213C155 213 183 240 183 271C183 301 155 329 124 329ZM124 -26C94 -26 67 -54 67 -84C67 -114 94 -142 123 -142C155 -142 183 -115 183 -84C183 -54 155 -26 124 -26Z" stroke="rgb(0,0,0)" stroke-opacity="1" stroke-width="8" fill="rgb(0,0,0)" fill-opacity="1"></path></g></g></g></g><g><g><g><g transform="matrix(1,0,0,1,425.816650390625,243.66665649414062)"><path transform="matrix(0.017,0,0,-0.017,0,0)" d="M322 -11C334 -11 343 -9 372 -1C383 61 391 95 402 142L380 142L358 82C352 64 340 57 319 57C307 57 291 59 270 64L252 68C219 75 185 80 166 80C134 80 107 74 71 59L410 441L416 473L407 482L384 459C374 449 364 445 350 445C316 445 264 453 216 466L198 471C170 478 150 482 136 482C119 482 99 479 75 472L43 350L64 350L94 408C111 412 120 413 133 413C174 413 206 398 259 398C295 398 319 404 352 421L-1 21L8 -6C37 17 64 26 99 26C162 26 253 -11 322 -11Z" stroke="rgb(0,0,0)" stroke-opacity="1" stroke-width="8" fill="rgb(0,0,0)" fill-opacity="1"></path></g></g><g><g><g><g><g transform="matrix(1,0,0,1,433.86669921875,246.9)"><path transform="matrix(0.0119,0,0,-0.0119,0,0)" d="M24 388L31 368L63 389C100 412 103 414 110 414C121 414 128 404 128 389C128 338 87 145 46 2L53 -9C78 -2 101 4 123 8C142 134 163 199 209 268C263 352 338 414 383 414C394 414 400 405 400 390C400 372 397 351 389 319L337 107C328 70 324 47 324 31C324 6 335 -9 354 -9C380 -9 416 12 514 85L504 103L478 86C449 67 427 56 417 56C410 56 404 65 404 76C404 81 405 92 406 96L472 372C479 401 483 429 483 446C483 469 472 482 452 482C410 482 341 444 282 389C244 354 216 320 164 247L202 408C206 426 208 438 208 449C208 470 200 482 185 482C164 482 125 460 52 408ZM973 -3L973 27L921 30C866 33 856 44 856 96L856 700L615 598L622 548L772 614L772 96C772 44 761 33 707 30L651 27L651 -3C805 0 805 0 816 0C847 0 957 -3 973 -3Z" stroke="rgb(0,0,0)" stroke-opacity="1" stroke-width="8" fill="rgb(0,0,0)" fill-opacity="1"></path></g></g></g></g></g></g></g><g><g><g><g transform="matrix(1,0,0,1,458.3499755859375,243.66665649414062)"><path transform="matrix(0.017,0,0,-0.017,0,0)" d="M322 -11C334 -11 343 -9 372 -1C383 61 391 95 402 142L380 142L358 82C352 64 340 57 319 57C307 57 291 59 270 64L252 68C219 75 185 80 166 80C134 80 107 74 71 59L410 441L416 473L407 482L384 459C374 449 364 445 350 445C316 445 264 453 216 466L198 471C170 478 150 482 136 482C119 482 99 479 75 472L43 350L64 350L94 408C111 412 120 413 133 413C174 413 206 398 259 398C295 398 319 404 352 421L-1 21L8 -6C37 17 64 26 99 26C162 26 253 -11 322 -11Z" stroke="rgb(0,0,0)" stroke-opacity="1" stroke-width="8" fill="rgb(0,0,0)" fill-opacity="1"></path></g></g><g><g><g><g><g transform="matrix(1,0,0,1,466.4000244140625,246.9)"><path transform="matrix(0.0119,0,0,-0.0119,0,0)" d="M24 388L31 368L63 389C100 412 103 414 110 414C121 414 128 404 128 389C128 338 87 145 46 2L53 -9C78 -2 101 4 123 8C142 134 163 199 209 268C263 352 338 414 383 414C394 414 400 405 400 390C400 372 397 351 389 319L337 107C328 70 324 47 324 31C324 6 335 -9 354 -9C380 -9 416 12 514 85L504 103L478 86C449 67 427 56 417 56C410 56 404 65 404 76C404 81 405 92 406 96L472 372C479 401 483 429 483 446C483 469 472 482 452 482C410 482 341 444 282 389C244 354 216 320 164 247L202 408C206 426 208 438 208 449C208 470 200 482 185 482C164 482 125 460 52 408ZM571 23L571 -3C758 -3 758 0 794 0C830 0 830 -3 1023 -3L1023 82C908 77 862 81 677 77L859 270C956 373 986 428 986 503C986 618 908 689 781 689C709 689 660 669 611 619L594 483L623 483L636 529C652 587 688 612 755 612C841 612 896 558 896 473C896 398 854 324 741 204Z" stroke="rgb(0,0,0)" stroke-opacity="1" stroke-width="8" fill="rgb(0,0,0)" fill-opacity="1"></path></g></g></g></g></g></g></g><g><g><g><g transform="matrix(1,0,0,1,494.2833251953125,243.66665649414062)"><path transform="matrix(0.017,0,0,-0.017,0,0)" d="M499 116C469 116 442 88 442 58C442 28 469 0 498 0C530 0 558 27 558 58C558 88 530 116 499 116ZM166 116C136 116 109 88 109 58C109 28 136 0 165 0C197 0 225 27 225 58C225 88 197 116 166 116ZM832 116C802 116 775 88 775 58C775 28 802 0 831 0C863 0 891 27 891 58C891 88 863 116 832 116Z" stroke="rgb(0,0,0)" stroke-opacity="1" stroke-width="8" fill="rgb(0,0,0)" fill-opacity="1"></path></g></g></g></g><g><g><g><g transform="matrix(1,0,0,1,525.61669921875,243.66665649414062)"><path transform="matrix(0.017,0,0,-0.017,0,0)" d="M322 -11C334 -11 343 -9 372 -1C383 61 391 95 402 142L380 142L358 82C352 64 340 57 319 57C307 57 291 59 270 64L252 68C219 75 185 80 166 80C134 80 107 74 71 59L410 441L416 473L407 482L384 459C374 449 364 445 350 445C316 445 264 453 216 466L198 471C170 478 150 482 136 482C119 482 99 479 75 472L43 350L64 350L94 408C111 412 120 413 133 413C174 413 206 398 259 398C295 398 319 404 352 421L-1 21L8 -6C37 17 64 26 99 26C162 26 253 -11 322 -11Z" stroke="rgb(0,0,0)" stroke-opacity="1" stroke-width="8" fill="rgb(0,0,0)" fill-opacity="1"></path></g></g><g><g><g><g><g transform="matrix(1,0,0,1,533.6666870117188,246.9)"><path transform="matrix(0.0119,0,0,-0.0119,0,0)" d="M24 388L31 368L63 389C100 412 103 414 110 414C121 414 128 404 128 389C128 338 87 145 46 2L53 -9C78 -2 101 4 123 8C142 134 163 199 209 268C263 352 338 414 383 414C394 414 400 405 400 390C400 372 397 351 389 319L337 107C328 70 324 47 324 31C324 6 335 -9 354 -9C380 -9 416 12 514 85L504 103L478 86C449 67 427 56 417 56C410 56 404 65 404 76C404 81 405 92 406 96L472 372C479 401 483 429 483 446C483 469 472 482 452 482C410 482 341 444 282 389C244 354 216 320 164 247L202 408C206 426 208 438 208 449C208 470 200 482 185 482C164 482 125 460 52 408ZM791 722L779 733C734 711 693 697 619 691L615 670L663 670C681 670 697 667 697 647C697 641 697 632 695 622L653 388C633 272 591 80 565 2L572 -9L641 7C649 64 663 164 703 236C748 317 851 414 893 414C904 414 915 407 915 393C915 375 910 342 900 303L849 107C843 85 836 55 836 31C836 6 846 -9 867 -9C899 -9 967 41 1026 85L1016 103L990 86C967 71 941 56 929 56C922 56 916 65 916 76C916 88 919 101 923 116L987 372C993 398 998 423 998 447C998 464 992 482 966 482C931 482 854 437 786 374C753 343 727 308 699 273L695 275Z" stroke="rgb(0,0,0)" stroke-opacity="1" stroke-width="8" fill="rgb(0,0,0)" fill-opacity="1"></path></g></g></g></g></g></g></g><svg x="415.73333740234375" overflow="visible" y="158.6333465576172" height="91.21665954589844" width="7.6500091552734375"><path d=" M 5.98 1.70 l -0.10 -0.10 q -1.09 0.03 -2.16 0.03 q -1.02 0.00 -2.14 -0.03 l -0.15 0.22 q 0.15 0.58 0.15 3.15 v 0.85 h 1.43 v -0.85 q 0.00 -1.31 0.07 -2.14 q 0.05 -0.60 1.19 -0.60 h 1.65 l 0.07 -0.09 v -0.44 z  M 1.58 5.63 v 79.96 h 1.43 v -79.96 z " style="fill:rgb(0,0,0);fill-opacity:1;stroke-width:1px;stroke:none;stroke-opacity:1;"></path><path d=" M 5.98 89.52 l -0.10 0.10 q -1.09 -0.03 -2.16 -0.03 q -1.02 0.00 -2.14 0.03 l -0.15 -0.22 q 0.15 -0.58 0.15 -3.15 v -0.85 h 1.43 v 0.85 q 0.00 1.31 0.07 2.14 q 0.05 0.60 1.19 0.60 h 1.65 l 0.07 0.09 v 0.44 z" style="fill:rgb(0,0,0);fill-opacity:1;stroke-width:1px;stroke:none;stroke-opacity:1;"></path></svg><svg x="549.6500244140625" overflow="visible" y="158.6333465576172" height="91.21665954589844" width="7.649993896484375"><path d=" M 1.57 1.70 l 0.10 -0.10 q 1.09 0.03 2.16 0.03 q 1.02 0.00 2.14 -0.03 l 0.15 0.22 q -0.15 0.58 -0.15 3.15 v 0.85 h -1.43 v -0.85 q 0.00 -1.31 -0.07 -2.14 q -0.05 -0.60 -1.19 -0.60 h -1.65 l -0.07 -0.09 v -0.44 z  M 5.97 5.63 v 79.96 h -1.43 v -79.96 z" style="fill:rgb(0,0,0);fill-opacity:1;stroke-width:1px;stroke:none;stroke-opacity:1;"></path><path d=" M 1.57 89.52 l 0.10 0.10 q 1.09 -0.03 2.16 -0.03 q 1.02 0.00 2.14 0.03 l 0.15 -0.22 q -0.15 -0.58 -0.15 -3.15 v -0.85 h -1.43 v 0.85 q 0.00 1.31 -0.07 2.14 q -0.05 0.60 -1.19 0.60 h -1.65 l -0.07 0.09 v 0.44 z" style="fill:rgb(0,0,0);fill-opacity:1;stroke-width:1px;stroke:none;stroke-opacity:1;"></path></svg><line stroke-dasharray="1" style="fill:none;stroke-width:[object Object];stroke:rgba(0, 0, 0, 0);" x1="420.7166748046875" y1="159.36666870117188" x2="453.25001525878906" y2="159.36666870117188"></line><line stroke-dasharray="1" style="fill:none;stroke-width:[object Object];stroke:rgba(0, 0, 0, 0);" x1="420.7166748046875" y1="159.36666870117188" x2="420.7166748046875" y2="182.48333740234375"></line><line stroke-dasharray="1" style="fill:none;stroke-width:[object Object];stroke:rgba(0, 0, 0, 0);" x1="453.25001525878906" y1="159.36666870117188" x2="453.25001525878906" y2="182.48333740234375"></line><line stroke-dasharray="1" style="fill:none;stroke-width:[object Object];stroke:rgba(0, 0, 0, 0);" x1="420.7166748046875" y1="182.48333740234375" x2="453.25001525878906" y2="182.48333740234375"></line><line stroke-dasharray="1" style="fill:none;stroke-width:[object Object];stroke:rgba(0, 0, 0, 0);" x1="453.25" y1="159.36666870117188" x2="485.7833251953125" y2="159.36666870117188"></line><line stroke-dasharray="1" style="fill:none;stroke-width:[object Object];stroke:rgba(0, 0, 0, 0);" x1="453.25" y1="159.36666870117188" x2="453.25" y2="182.48333740234375"></line><line stroke-dasharray="1" style="fill:none;stroke-width:[object Object];stroke:rgba(0, 0, 0, 0);" x1="485.7833251953125" y1="159.36666870117188" x2="485.7833251953125" y2="182.48333740234375"></line><line stroke-dasharray="1" style="fill:none;stroke-width:[object Object];stroke:rgba(0, 0, 0, 0);" x1="453.25" y1="182.48333740234375" x2="485.7833251953125" y2="182.48333740234375"></line><line stroke-dasharray="1" style="fill:none;stroke-width:[object Object];stroke:rgba(0, 0, 0, 0);" x1="485.7833251953125" y1="159.36666870117188" x2="520.5166625976562" y2="159.36666870117188"></line><line stroke-dasharray="1" style="fill:none;stroke-width:[object Object];stroke:rgba(0, 0, 0, 0);" x1="485.7833251953125" y1="159.36666870117188" x2="485.7833251953125" y2="182.48333740234375"></line><line stroke-dasharray="1" style="fill:none;stroke-width:[object Object];stroke:rgba(0, 0, 0, 0);" x1="520.5166625976562" y1="159.36666870117188" x2="520.5166625976562" y2="182.48333740234375"></line><line stroke-dasharray="1" style="fill:none;stroke-width:[object Object];stroke:rgba(0, 0, 0, 0);" x1="485.7833251953125" y1="182.48333740234375" x2="520.5166625976562" y2="182.48333740234375"></line><line stroke-dasharray="1" style="fill:none;stroke-width:[object Object];stroke:rgba(0, 0, 0, 0);" x1="520.5166625976562" y1="159.36666870117188" x2="553.0499877929688" y2="159.36666870117188"></line><line stroke-dasharray="1" style="fill:none;stroke-width:[object Object];stroke:rgba(0, 0, 0, 0);" x1="520.5166625976562" y1="159.36666870117188" x2="520.5166625976562" y2="182.48333740234375"></line><line stroke-dasharray="1" style="fill:none;stroke-width:[object Object];stroke:rgba(0, 0, 0, 0);" x1="553.0499877929688" y1="159.36666870117188" x2="553.0499877929688" y2="182.48333740234375"></line><line stroke-dasharray="1" style="fill:none;stroke-width:[object Object];stroke:rgba(0, 0, 0, 0);" x1="520.5166625976562" y1="182.48333740234375" x2="553.0499877929688" y2="182.48333740234375"></line><line stroke-dasharray="1" style="fill:none;stroke-width:[object Object];stroke:rgba(0, 0, 0, 0);" x1="420.7166748046875" y1="182.48333740234375" x2="453.25001525878906" y2="182.48333740234375"></line><line stroke-dasharray="1" style="fill:none;stroke-width:[object Object];stroke:rgba(0, 0, 0, 0);" x1="420.7166748046875" y1="182.48333740234375" x2="420.7166748046875" y2="205.60000610351562"></line><line stroke-dasharray="1" style="fill:none;stroke-width:[object Object];stroke:rgba(0, 0, 0, 0);" x1="453.25001525878906" y1="182.48333740234375" x2="453.25001525878906" y2="205.60000610351562"></line><line stroke-dasharray="1" style="fill:none;stroke-width:[object Object];stroke:rgba(0, 0, 0, 0);" x1="420.7166748046875" y1="205.60000610351562" x2="453.25001525878906" y2="205.60000610351562"></line><line stroke-dasharray="1" style="fill:none;stroke-width:[object Object];stroke:rgba(0, 0, 0, 0);" x1="453.25" y1="182.48333740234375" x2="485.7833251953125" y2="182.48333740234375"></line><line stroke-dasharray="1" style="fill:none;stroke-width:[object Object];stroke:rgba(0, 0, 0, 0);" x1="453.25" y1="182.48333740234375" x2="453.25" y2="205.60000610351562"></line><line stroke-dasharray="1" style="fill:none;stroke-width:[object Object];stroke:rgba(0, 0, 0, 0);" x1="485.7833251953125" y1="182.48333740234375" x2="485.7833251953125" y2="205.60000610351562"></line><line stroke-dasharray="1" style="fill:none;stroke-width:[object Object];stroke:rgba(0, 0, 0, 0);" x1="453.25" y1="205.60000610351562" x2="485.7833251953125" y2="205.60000610351562"></line><line stroke-dasharray="1" style="fill:none;stroke-width:[object Object];stroke:rgba(0, 0, 0, 0);" x1="485.7833251953125" y1="182.48333740234375" x2="520.5166625976562" y2="182.48333740234375"></line><line stroke-dasharray="1" style="fill:none;stroke-width:[object Object];stroke:rgba(0, 0, 0, 0);" x1="485.7833251953125" y1="182.48333740234375" x2="485.7833251953125" y2="205.60000610351562"></line><line stroke-dasharray="1" style="fill:none;stroke-width:[object Object];stroke:rgba(0, 0, 0, 0);" x1="520.5166625976562" y1="182.48333740234375" x2="520.5166625976562" y2="205.60000610351562"></line><line stroke-dasharray="1" style="fill:none;stroke-width:[object Object];stroke:rgba(0, 0, 0, 0);" x1="485.7833251953125" y1="205.60000610351562" x2="520.5166625976562" y2="205.60000610351562"></line><line stroke-dasharray="1" style="fill:none;stroke-width:[object Object];stroke:rgba(0, 0, 0, 0);" x1="520.5166625976562" y1="182.48333740234375" x2="553.0499877929688" y2="182.48333740234375"></line><line stroke-dasharray="1" style="fill:none;stroke-width:[object Object];stroke:rgba(0, 0, 0, 0);" x1="520.5166625976562" y1="182.48333740234375" x2="520.5166625976562" y2="205.60000610351562"></line><line stroke-dasharray="1" style="fill:none;stroke-width:[object Object];stroke:rgba(0, 0, 0, 0);" x1="553.0499877929688" y1="182.48333740234375" x2="553.0499877929688" y2="205.60000610351562"></line><line stroke-dasharray="1" style="fill:none;stroke-width:[object Object];stroke:rgba(0, 0, 0, 0);" x1="520.5166625976562" y1="205.60000610351562" x2="553.0499877929688" y2="205.60000610351562"></line><line stroke-dasharray="1" style="fill:none;stroke-width:[object Object];stroke:rgba(0, 0, 0, 0);" x1="420.7166748046875" y1="205.60000610351562" x2="453.25001525878906" y2="205.60000610351562"></line><line stroke-dasharray="1" style="fill:none;stroke-width:[object Object];stroke:rgba(0, 0, 0, 0);" x1="420.7166748046875" y1="205.60000610351562" x2="420.7166748046875" y2="226.73333740234375"></line><line stroke-dasharray="1" style="fill:none;stroke-width:[object Object];stroke:rgba(0, 0, 0, 0);" x1="453.25001525878906" y1="205.60000610351562" x2="453.25001525878906" y2="226.73333740234375"></line><line stroke-dasharray="1" style="fill:none;stroke-width:[object Object];stroke:rgba(0, 0, 0, 0);" x1="420.7166748046875" y1="226.73333740234375" x2="453.25001525878906" y2="226.73333740234375"></line><line stroke-dasharray="1" style="fill:none;stroke-width:[object Object];stroke:rgba(0, 0, 0, 0);" x1="453.25" y1="205.60000610351562" x2="485.7833251953125" y2="205.60000610351562"></line><line stroke-dasharray="1" style="fill:none;stroke-width:[object Object];stroke:rgba(0, 0, 0, 0);" x1="453.25" y1="205.60000610351562" x2="453.25" y2="226.73333740234375"></line><line stroke-dasharray="1" style="fill:none;stroke-width:[object Object];stroke:rgba(0, 0, 0, 0);" x1="485.7833251953125" y1="205.60000610351562" x2="485.7833251953125" y2="226.73333740234375"></line><line stroke-dasharray="1" style="fill:none;stroke-width:[object Object];stroke:rgba(0, 0, 0, 0);" x1="453.25" y1="226.73333740234375" x2="485.7833251953125" y2="226.73333740234375"></line><line stroke-dasharray="1" style="fill:none;stroke-width:[object Object];stroke:rgba(0, 0, 0, 0);" x1="485.7833251953125" y1="205.60000610351562" x2="520.5166625976562" y2="205.60000610351562"></line><line stroke-dasharray="1" style="fill:none;stroke-width:[object Object];stroke:rgba(0, 0, 0, 0);" x1="485.7833251953125" y1="205.60000610351562" x2="485.7833251953125" y2="226.73333740234375"></line><line stroke-dasharray="1" style="fill:none;stroke-width:[object Object];stroke:rgba(0, 0, 0, 0);" x1="520.5166625976562" y1="205.60000610351562" x2="520.5166625976562" y2="226.73333740234375"></line><line stroke-dasharray="1" style="fill:none;stroke-width:[object Object];stroke:rgba(0, 0, 0, 0);" x1="485.7833251953125" y1="226.73333740234375" x2="520.5166625976562" y2="226.73333740234375"></line><line stroke-dasharray="1" style="fill:none;stroke-width:[object Object];stroke:rgba(0, 0, 0, 0);" x1="520.5166625976562" y1="205.60000610351562" x2="553.0499877929688" y2="205.60000610351562"></line><line stroke-dasharray="1" style="fill:none;stroke-width:[object Object];stroke:rgba(0, 0, 0, 0);" x1="520.5166625976562" y1="205.60000610351562" x2="520.5166625976562" y2="226.73333740234375"></line><line stroke-dasharray="1" style="fill:none;stroke-width:[object Object];stroke:rgba(0, 0, 0, 0);" x1="553.0499877929688" y1="205.60000610351562" x2="553.0499877929688" y2="226.73333740234375"></line><line stroke-dasharray="1" style="fill:none;stroke-width:[object Object];stroke:rgba(0, 0, 0, 0);" x1="520.5166625976562" y1="226.73333740234375" x2="553.0499877929688" y2="226.73333740234375"></line><line stroke-dasharray="1" style="fill:none;stroke-width:[object Object];stroke:rgba(0, 0, 0, 0);" x1="420.7166748046875" y1="226.73333740234375" x2="453.25001525878906" y2="226.73333740234375"></line><line stroke-dasharray="1" style="fill:none;stroke-width:[object Object];stroke:rgba(0, 0, 0, 0);" x1="420.7166748046875" y1="226.73333740234375" x2="420.7166748046875" y2="249.85000610351562"></line><line stroke-dasharray="1" style="fill:none;stroke-width:[object Object];stroke:rgba(0, 0, 0, 0);" x1="453.25001525878906" y1="226.73333740234375" x2="453.25001525878906" y2="249.85000610351562"></line><line stroke-dasharray="1" style="fill:none;stroke-width:[object Object];stroke:rgba(0, 0, 0, 0);" x1="420.7166748046875" y1="249.85000610351562" x2="453.25001525878906" y2="249.85000610351562"></line><line stroke-dasharray="1" style="fill:none;stroke-width:[object Object];stroke:rgba(0, 0, 0, 0);" x1="453.25" y1="226.73333740234375" x2="485.7833251953125" y2="226.73333740234375"></line><line stroke-dasharray="1" style="fill:none;stroke-width:[object Object];stroke:rgba(0, 0, 0, 0);" x1="453.25" y1="226.73333740234375" x2="453.25" y2="249.85000610351562"></line><line stroke-dasharray="1" style="fill:none;stroke-width:[object Object];stroke:rgba(0, 0, 0, 0);" x1="485.7833251953125" y1="226.73333740234375" x2="485.7833251953125" y2="249.85000610351562"></line><line stroke-dasharray="1" style="fill:none;stroke-width:[object Object];stroke:rgba(0, 0, 0, 0);" x1="453.25" y1="249.85000610351562" x2="485.7833251953125" y2="249.85000610351562"></line><line stroke-dasharray="1" style="fill:none;stroke-width:[object Object];stroke:rgba(0, 0, 0, 0);" x1="485.7833251953125" y1="226.73333740234375" x2="520.5166625976562" y2="226.73333740234375"></line><line stroke-dasharray="1" style="fill:none;stroke-width:[object Object];stroke:rgba(0, 0, 0, 0);" x1="485.7833251953125" y1="226.73333740234375" x2="485.7833251953125" y2="249.85000610351562"></line><line stroke-dasharray="1" style="fill:none;stroke-width:[object Object];stroke:rgba(0, 0, 0, 0);" x1="520.5166625976562" y1="226.73333740234375" x2="520.5166625976562" y2="249.85000610351562"></line><line stroke-dasharray="1" style="fill:none;stroke-width:[object Object];stroke:rgba(0, 0, 0, 0);" x1="485.7833251953125" y1="249.85000610351562" x2="520.5166625976562" y2="249.85000610351562"></line><line stroke-dasharray="1" style="fill:none;stroke-width:[object Object];stroke:rgba(0, 0, 0, 0);" x1="520.5166625976562" y1="226.73333740234375" x2="553.0499877929688" y2="226.73333740234375"></line><line stroke-dasharray="1" style="fill:none;stroke-width:[object Object];stroke:rgba(0, 0, 0, 0);" x1="520.5166625976562" y1="226.73333740234375" x2="520.5166625976562" y2="249.85000610351562"></line><line stroke-dasharray="1" style="fill:none;stroke-width:[object Object];stroke:rgba(0, 0, 0, 0);" x1="553.0499877929688" y1="226.73333740234375" x2="553.0499877929688" y2="249.85000610351562"></line><line stroke-dasharray="1" style="fill:none;stroke-width:[object Object];stroke:rgba(0, 0, 0, 0);" x1="520.5166625976562" y1="249.85000610351562" x2="553.0499877929688" y2="249.85000610351562"></line></g></g></g></g></g></g></svg>
</svg>
